<?xml version="1.0" encoding="utf-8"?>
<!-- Generator: Adobe Illustrator 19.0.1, SVG Export Plug-In . SVG Version: 6.00 Build 0)  -->
<svg version="1.1" id="Layer_1" xmlns="http://www.w3.org/2000/svg" xmlns:xlink="http://www.w3.org/1999/xlink" x="0px" y="0px"
	 viewBox="-280 372 50 50" style="enable-background:new -280 372 50 50;" xml:space="preserve">
<style type="text/css">
	.st0{fill:#E89930;}
	.st1{fill:#121C30;}
</style>
<g>
	<path class="st0" d="M-269.1,421.8c-5.7,0-10.5-4.7-10.5-10.5v-28.4c0-5.7,4.7-10.5,10.5-10.5h28.4c5.7,0,10.5,4.7,10.5,10.5v28.4
		c0,5.7-4.7,10.5-10.5,10.5H-269.1z"/>
</g>
<path class="st1" d="M-251.2,381.1l-1.1,0.5l-0.1,0.4l0.1,0.6l-0.1,0.3l-0.1,0.5h0.9c0.3-0.4,0.8-1.1,0.8-1.1h1.8V382h0.9v0.6h1.9
	v0.3h2v-0.3h0.3v-0.4v-0.1h0.3v0.3h0.4v1h1.6v-0.6h0.4v0.6h1.6v-0.8h0.6v1.6h1.3v1h-4.9c0,0,0,0.6-0.4,1c-0.5,0.3-1.1,0.3-1.1,0.3
	c-0.3,1,1.5,4.2,1.5,4.2l-1,0.5c-1.1-1.8-1.4-3.2-1.5-3.7c-0.1-0.5-0.3,0-0.3,0l-0.4,0.8c0,0-0.5,0.1-1.3,0.1
	c-0.8,0.1-0.1-0.5-1.6,1c0,0.1-0.3,0.1-0.4,0.3c-0.5,0.5-1.6,1-1.6,1l-2.5-0.1c0,0-0.1,0.9-0.4,1c-0.4,0.1-0.3,1.3-0.4,1.8
	c-0.1,0.3-0.3,0.1-0.4,0.4c-0.1,0.3-0.3,0.8-0.3,0.8v1.9c0.8-0.5,2.7,2.2,2.7,2.2c1.1,1,1.5,2.8,1.5,2.8l-0.5,0.8l2.5,3.2
	c0.4,1.4,1.1,4.2,1.1,6.1c0.1,0.4-0.9,1-0.9,1.4c0,0.5,0.1,0.6,0.3,1.3c0.5,0.5,1.5,1.1,1.5,1.1c1.5,1.6,1.4,2.8,0.8,3
	c-0.6,0.3-2,0.1-2,0.1c-0.8,0.1-1.6-0.8-2.2-1.4c-0.1-0.1,0-0.5,0-0.5l-0.6-0.1c0.1-1.5,0-2.5-0.1-3c-0.1-0.4-0.3-0.5-0.3-0.5
	c-0.1-0.1-0.5-0.1-0.6-0.5c-0.6-1.8-1.1-5.2-1.1-5.2l-5.2-5.8c0,0-2.3,5.3-3,7.5c-0.6,2.2-1.1,2.7-1.6,3.2c-0.1,0.1-2.5,1.9-3.4,1.3
	c-0.1,0.1,0.4,1.3,0.4,1.9c0,0.3,1.1,0.1,0.9,0.8c-0.1,0.5-2.2,0.3-2.2,0.3c-1.1-0.1-1.6-1.1-1.8-2c-0.1-1-0.5,0-0.5-0.1
	c-0.3-0.8-0.1-1.1-0.1-1.1c0.4-0.8,1-1.4,1.9-2.3c0.1-0.1-0.1-0.8,0-0.9c1.1-1,2-1.8,2-1.8c0.6-2.9,2.7-10.1,2.7-10.1
	c-0.4-1.3-0.3-3.4,0.1-4.8c0.4-1.4,0.6-5.3,0.6-6.3c0.1-1.5,1.1-2.5,1.9-3.4c0.4-0.4,0.6-0.1,1-0.1c0.3-0.1,0.8-0.3,1-0.4
	c0.1,0-0.3-0.1-0.3-0.1l-0.1-2.5c0.5-2,2.2-2.2,3.5-2.2c2.7-0.1,3.2,3,3.2,3L-251.2,381.1L-251.2,381.1z M-252,387.2
	c0.4-0.1,0.5-0.5,0.8-0.6c0.4-0.1,0.8-0.3,1.4-0.5c0.6-0.3,0.8-0.8,0.8-0.8s-2.4-0.1-2.9,0c-0.6,0.1-1.4,0.6-1.4,0.6
	c-0.1,0.4-0.3,1.3-0.3,1.3S-252.1,387.2-252,387.2z"/>
</svg>
