<?xml version="1.0" encoding="UTF-8"?>
<!DOCTYPE svg PUBLIC "-//W3C//DTD SVG 1.1//EN" "http://www.w3.org/Graphics/SVG/1.1/DTD/svg11.dtd">
<!-- Creator: CorelDRAW X6 -->
<svg xmlns="http://www.w3.org/2000/svg" xml:space="preserve" width="50px" height="50px" version="1.1" style="shape-rendering:geometricPrecision; text-rendering:geometricPrecision; image-rendering:optimizeQuality; fill-rule:evenodd; clip-rule:evenodd"
viewBox="0 0 500000 500000"
 xmlns:xlink="http://www.w3.org/1999/xlink">
 <defs>
  <style type="text/css">
   <![CDATA[
    .fil0 {fill:#FF3C00}
   ]]>
  </style>
 </defs>
 <g id="Слой_x0020_1">
  <metadata id="CorelCorpID_0Corel-Layer"/>
  <path id="dota2" class="fil0" d="M94428 303374l99205 95242 -29279 11761 -12067 2409 -9641 6877 -38574 1763 -23414 -18666 -18936 -14837 8935 -27610 23771 -56940zm399554 -68137c-95120,-21634 -106254,-33724 -244549,-46420l-2256 -215 123784 83435 16486 13365 -3504 2089 9119 2115 49445 33370c0,0 -3875,27743 -14375,55514 -10525,27740 -8413,31924 -19293,36508 -10871,4572 -55409,-2469 -55409,-2469l-61351 -63227 -5973 -7699 -4201 -6698 -14026 -10514 -5613 -6344 -15429 -13700 -4561 -6659 -2460 -4921 -9096 -8101 -6667 -6307 -44178 -48484 -28760 -27383 -18924 -21441 -3501 -1414 -360 -4207 -10021 -10318c-37928,-9142 -74810,-18428 -117443,-23805l184 2514c700,10522 1406,13363 3852,24945 2466,11582 7373,27408 6316,32315 -1054,4918 -5261,10882 -2095,23533 3152,12637 8410,14397 8410,20387 0,5958 -7724,15429 -10522,18958 -2818,3515 -3849,3872 -3172,20364 709,16509 354,36182 354,36182 0,0 5970,3886 9139,7758 3124,3827 3124,23868 3124,32315 0,8408 -5947,21036 -5947,21036 0,0 -9111,5644 -8053,23916 1060,18269 1035,29497 1383,41783 354,12328 -1054,16866 -2089,24968 -1057,8056 10854,10171 12620,10871 689,272 1811,-48 3197,-366 2143,-502 4907,-986 7671,723 4561,2815 4915,5630 11208,3872 6318,-1772 11577,-3172 15783,-3172 4207,0 6670,2115 11231,1400 4552,-700 5958,-1400 5958,-1400l6301 -357c0,0 -3149,-1400 9819,-700 12986,700 9842,3172 9842,3172 0,0 -2820,-2472 11900,-2472 14735,0 -1400,2829 14735,3172 16138,357 18933,0 23839,-2115 4910,-2100 7379,-3515 10176,-2815 2818,714 9468,357 12263,1414 2806,1043 6310,3515 9468,3872 3166,357 8422,1057 8422,1057l7356 343 4907 -2100c0,0 9119,17558 16135,18272 7033,700 4561,-6701 12266,-8101 7724,-1414 11937,-700 15429,1057 3526,1757 6670,2815 8413,1400 1760,-1403 5264,-2458 5264,-2458 0,-3 -1392,1757 5615,3872 7019,2112 7342,-1057 14017,-3172 6670,-2115 37885,-3872 49439,-3172 11582,700 18590,-312 28055,-312 9468,0 14720,-388 18573,-2503 3875,-2083 8084,-4184 8084,-4184 6,0 351,2815 10168,4184 9822,1400 15080,1400 15080,1400 0,0 -717,0 8039,1414 8782,1412 29480,1057 29480,1057l9465 -3484c0,0 -8770,-1446 -3178,-5272 5613,-3872 15080,-3172 15080,-3172 0,0 17901,0 24571,4929 6647,4929 11557,6299 11557,6299l-349 -205130c0,0 -11937,1403 -13680,3 -1749,-1414 -692,-4564 3852,-7021 4561,-2472 2820,-25651 2820,-25651 3,0 1395,-17926 1395,-20716 0,-278 -23,-607 -60,-984zm-493115 -93932c42633,5377 79515,14664 117443,23805l-64673 -66615c0,0 11580,-1769 20344,-7021 8759,-5264 19290,-7021 24902,-4558 5604,2443 16115,10894 22076,15095 5964,4207 26300,19330 26300,19330l3506 8079c0,0 3849,-700 14026,4921 10174,5604 70141,46009 70141,46009l12243 8252 2256 215c138295,12696 149429,24786 244549,46420 -357,-3504 -2310,-11001 -4853,-14496 -2795,-3849 -12966,-16158 -12966,-17892 0,-1772 0,-2826 0,-2826 0,-3 2795,-4575 5267,-7021 2435,-2472 3852,-6344 2086,-8425 -1740,-2115 -2795,-7033 2112,-8790 4907,-1757 13317,-4586 13317,-4586 0,0 2472,-73738 -1380,-95534 -3875,-21765 -3523,-24594 -1786,-28443 1786,-3872 2115,-4229 2115,-4229 0,0 3163,-17558 -1035,-19658 -4209,-2106 -8084,-1083 -11577,-5990 -3506,-4904 -14377,-4904 -17195,-4550 -2795,346 -16475,2117 -18933,703 -2449,-1414 -7359,-5621 -10522,-4232 -3155,1414 -8413,14780 -12266,11965 -3849,-2829 -1760,-12640 -7353,-13022 -5615,-343 -19284,-343 -28400,-343 -9130,0 -29120,700 -35419,-1032 -6324,-1786 -20339,-3529 -22436,-2829 -2112,714 -4910,4586 -8076,12665 -3141,8050 -10522,6996 -17192,6996 -6650,0 -6299,-8422 -6299,-8422 0,-3 -31567,-5978 -24188,-7379 7364,-1389 9465,-3861 6670,-4918 -2818,-1046 -26660,1414 -45247,1414 -18576,0 -26300,0 -31567,0 -5241,0 3526,7722 -10845,9490 -14377,1760 -17555,-23 -18590,2435 -1054,2497 -17167,3886 -29801,3886 -12631,-3 -15792,-1772 -15792,-1772 3,0 -1760,-5961 -8759,-6318 -7016,-346 -87310,2115 -87310,2115 0,0 -20690,0 -23134,-700 -2463,-703 -8433,-1057 -8433,7019 0,8079 -2089,13365 709,19330 2812,5961 2812,17547 2109,35141 -700,17535 -4907,31229 -6318,43538 -1290,11265 -510,14273 173,22779zm295414 -29444l89428 68831 10843 700 -1729 -15800 3492 -9836 1414 -12640 2798 -6307 2460 -9147 -1766 -18272 -29441 -19673 -22116 6687 -23477 6656 -16475 1066 -15432 7736z"/>
 </g>
</svg>
