<?xml version="1.0" encoding="UTF-8"?>
<!DOCTYPE svg PUBLIC "-//W3C//DTD SVG 1.1//EN" "http://www.w3.org/Graphics/SVG/1.1/DTD/svg11.dtd">
<!-- Creator: CorelDRAW X6 -->
<svg xmlns="http://www.w3.org/2000/svg" xml:space="preserve" width="50px" height="50px" version="1.1" style="shape-rendering:geometricPrecision; text-rendering:geometricPrecision; image-rendering:optimizeQuality; fill-rule:evenodd; clip-rule:evenodd"
viewBox="0 0 500000 500000"
 xmlns:xlink="http://www.w3.org/1999/xlink">
 <defs>
  <style type="text/css">
   <![CDATA[
    .fil5 {fill:#00CCFF}
    .fil6 {fill:aqua}
    .fil4 {fill:#412F16}
    .fil1 {fill:#8C7545}
    .fil2 {fill:#CCAB6A}
    .fil3 {fill:#D6BB84}
    .fil0 {fill:#DEBD78}
   ]]>
  </style>
 </defs>
 <g id="Слой_x0020_1">
  <metadata id="CorelCorpID_0Corel-Layer"/>
  <g id="Hearthstone">
   <g>
    <polygon class="fil0" points="250179,500003 191546,409586 308456,409586 "/>
    <polygon class="fil1" points="250179,500003 250003,409586 308456,409586 "/>
   </g>
   <g>
    <polygon class="fil0" points="250179,0 191546,90420 308456,90420 "/>
    <polygon class="fil1" points="250179,0 250003,90420 308456,90420 "/>
   </g>
   <g>
    <polygon class="fil0" points="0,250179 90420,191549 90420,308456 "/>
    <polygon class="fil1" points="0,250179 90420,250003 90420,308456 "/>
   </g>
   <g>
    <polygon class="fil0" points="500003,250179 409586,191549 409586,308456 "/>
    <polygon class="fil1" points="500003,250179 409586,250003 409586,308456 "/>
   </g>
   <g>
    <polygon class="fil0" points="402474,402227 297081,379748 379748,297081 "/>
    <polygon class="fil1" points="402474,402227 338413,338413 379748,297081 "/>
   </g>
   <g>
    <polygon class="fil0" points="97779,97529 120258,202925 202925,120258 "/>
    <polygon class="fil1" points="97779,97529 161590,161593 202925,120258 "/>
   </g>
   <g>
    <polygon class="fil0" points="97779,402227 120258,296831 202925,379499 "/>
    <polygon class="fil1" points="97779,402227 161593,338164 202925,379499 "/>
   </g>
   <g>
    <polygon class="fil0" points="402476,97529 297081,120008 379748,202675 "/>
    <polygon class="fil1" points="402476,97529 338413,161343 379748,202675 "/>
   </g>
   <circle class="fil2" cx="250114" cy="250563" r="171700"/>
   <circle class="fil3" cx="250114" cy="250563" r="164231"/>
   <circle class="fil1" cx="250114" cy="250563" r="148831"/>
   <circle class="fil4" cx="250114" cy="250563" r="138016"/>
   <path class="fil5" d="M159356 193729l14842 -7792 15214 -20407 10760 -6678 28199 -16699 12246 5567 4825 -371 8532 -7421 5939 8161 35620 11503 8535 -1111 26345 36734 8164 27088 1854 11500 6678 2971 -371 10760c0,0 -5564,1483 -5564,4082 0,2597 371,21892 371,21892l-10389 26345 -6310 14842 -15211 11503 -5939 2225 -371 8164 -35992 15214 -21152 -1114 -20035 9646 -47495 -14100 -6310 -8164 39334 -12614 10018 -9278c0,0 30427,-7421 32281,-8904 1857,-1485 35623,-30799 35623,-30799l371 -7050 8532 -2968 743 -7050 -5564 -4082 743 -39334 -17070 -28571 -2225 -5196 -4082 371 -28573 2597 -22263 9278 -13357 9275c0,0 -4453,4082 -4453,5939 0,1854 1485,21892 1485,21892l6678 18553 5193 4082 7792 -4082 5567 -5567 -3339 -5564 -371 -13357 12246 -3339 17067 3708 11132 24120 371 19296 -7792 12986 -12986 7421 -7053 -2225 -6678 6307c0,0 -12986,1114 -17810,743 -4825,-371 -11132,-3711 -15214,-7050 -4082,-3339 -17067,-18924 -17067,-18924l-20038 -26345 -2968 -37477 -5196 -3711 1857 -7792 4082 371z"/>
   <path class="fil6" d="M174476 198608l8830 2849 12852 -10287 9748 -19837 21453 -6576 15956 6242 7186 -12181 13258 2027 4249 8838 28537 -3342 8872 17779 9814 28639 11537 13255 2531 12178 2290 9714 -4419 10086c0,0 -2650,8960 -3203,13193 -553,4232 -13124,21892 -13124,21892l-4655 7790 102 4720 -15551 7455 -5261 5936 -28701 16228 46990 -45907 5769 -9751 2460 -6341 4791 -7724 1857 -18252 -13428 -31235 -16393 -34305 -11336 -7895 -10154 2058 -32284 1922 -24287 9615 -7960 8263c0,0 -9765,5431 -11200,7622 -1437,2194 -2565,32352 -2565,32352l8028 12144 10930 10154 15551 4691 17714 -6917 -5026 -13326 -4422 -8297 6849 371 8634 1349 5057 8938 1721 8161 643 9612 -5227 8770 -10426 -3237 -11580 7279c0,0 2021,-3356 -4810,-6301 -6834,-2948 -13754,2772 -17915,-3677 -4158,-6452 -17742,-19262 -17742,-19262l-11602 -7115 3441 -13187 2903 -16866 -5567 -371 -1715 -9933z"/>
  </g>
 </g>
</svg>
