<?xml version="1.0" encoding="UTF-8"?>
<!DOCTYPE svg PUBLIC "-//W3C//DTD SVG 1.1//EN" "http://www.w3.org/Graphics/SVG/1.1/DTD/svg11.dtd">
<!-- Creator: CorelDRAW X6 -->
<svg xmlns="http://www.w3.org/2000/svg" xml:space="preserve" width="50px" height="50px" version="1.1" style="shape-rendering:geometricPrecision; text-rendering:geometricPrecision; image-rendering:optimizeQuality; fill-rule:evenodd; clip-rule:evenodd"
viewBox="0 0 500000 500000"
 xmlns:xlink="http://www.w3.org/1999/xlink">
 <defs>
  <style type="text/css">
   <![CDATA[
    .fil0 {fill:#002952}
    .fil2 {fill:#1E5A96}
    .fil4 {fill:#214E7A}
    .fil3 {fill:#689DD1}
    .fil1 {fill:white}
   ]]>
  </style>
 </defs>
 <g id="Слой_x0020_1">
  <metadata id="CorelCorpID_0Corel-Layer"/>
  <g id="SC">
   <polygon class="fil0" points="225248,483854 246700,468385 267541,483740 301574,301061 267476,38690 247205,49811 225248,38690 193412,90346 221478,468720 "/>
   <path class="fil1" d="M415445 41321c0,0 4297,-4343 2143,-3506 -2154,839 -56756,-5170 -56756,-5170 0,0 -63468,2682 -64945,2682 -1474,0 -24109,4260 -24109,4260l0 5207c0,0 31978,48586 31978,47724 0,-862 -3246,310614 -3246,310614l-30787 81871 86814 -73449 145 -6282 -2874 -291763 6868 -6698 0 -53340 54768 -12149z"/>
   <g>
    <polygon class="fil1" points="71175,39328 133943,29171 221191,39583 219553,51735 183473,81241 184287,399041 224601,483338 224154,483522 136154,415822 130114,413123 152145,388453 144925,56943 "/>
    <path class="fil2" d="M69996 39583c0,0 60177,22507 60117,76371 -62,53861 0,297169 0,297169 0,0 12487,-14652 37182,-15956 0,-58179 -833,-313323 -853,-320322 -17,-6999 -10653,-38996 -96446,-37262z"/>
    <path class="fil3" d="M71008 39356c-343,133 73931,-16192 103193,18916 27309,-10998 51047,-19582 51047,-19582l-49947 -22031c0,0 -16257,-5550 -30365,-743 -14108,4808 -55593,16277 -73928,23440z"/>
    <polygon class="fil4" points="176066,72326 225248,38690 225248,483854 176939,397451 "/>
    <path class="fil3" d="M130114 413123c0,0 15316,-10684 39257,-6324 6922,9496 55877,77055 55877,77055 0,0 -78866,-26705 -95134,-70730z"/>
   </g>
   <g>
    <polygon class="fil1" points="421715,39356 358780,29171 267612,38534 273171,51735 309250,81241 308437,399041 267966,483338 268051,483383 356569,415822 362610,413123 340579,388453 347799,56943 "/>
    <path class="fil2" d="M422727 39583c0,0 -60177,22507 -60117,76371 60,53861 0,297169 0,297169 0,0 -12487,-14652 -37182,-15956 0,-58179 833,-313323 853,-320322 17,-6999 10650,-38996 96446,-37262z"/>
    <path class="fil3" d="M421715 39356c343,133 -73934,-16192 -103193,18916 -27309,-10998 -51047,-19582 -51047,-19582l49947 -22031c0,0 16257,-5550 30365,-743 14108,4808 55593,16277 73928,23440z"/>
    <polygon class="fil4" points="316657,72326 267476,38690 267476,483854 315784,397451 "/>
    <path class="fil3" d="M362610 413123c0,0 -15316,-10684 -39257,-6324 -6922,9496 -55877,77055 -55877,77055 0,0 78866,-26705 95134,-70730z"/>
   </g>
   <path class="fil0" d="M437898 179882l-18944 448 -9383 -9720 -46936 9 -176 134763c20687,26323 47172,40159 80876,40675 -5638,7262 -112522,73395 -184242,-25135 -71723,-98533 -1772,-163177 -1772,-163177l40760 -42735 206919 1729 -67102 63145z"/>
   <path class="fil0" d="M4998 365476l45967 -69860 8379 2013c0,0 9720,18431 26476,19437 16756,1006 44275,-6 44275,-6l-3 -17481c-36516,-43555 -95250,-104933 -109543,-130664 -2373,-4275 -1746,-38965 9805,-49414 4354,-3940 8938,-5196 20273,-5196l191031 0 -22788 74736 -42367 45848 -6900 116360c0,0 -81774,4357 -83452,4691 -1675,337 -81153,9536 -81153,9536z"/>
   <path class="fil0" d="M4998 365476l19330 9403c0,0 212146,-3351 212146,0 0,3353 17090,-39546 17090,-39546l-23496 -214136 -46401 36176c0,0 -73917,-4286 -73877,-6032 37,-1746 -83257,6233 -83257,6233l3192 8810 74702 26515 113613 146121 -45244 19772c0,0 -138414,3351 -139420,3351 -1006,0 -28378,3334 -28378,3334z"/>
   <g id="SC_x0020_lll">
    <g id="S">
     <path class="fil1" d="M26532 157573c0,0 1573,-11129 1826,-11633 249,-502 13907,-18264 13907,-18264l187785 -6483 -36216 34552 -33849 -5029 -89819 -2010 -43634 8867z"/>
     <path class="fil3" d="M26532 157573c0,0 3124,-22830 18873,-22830 15747,0 124152,0 124152,0l11137 4456 49354 -18006 -187623 0c0,0 -16092,2767 -15894,36380z"/>
     <path class="fil2" d="M26532 157573c0,0 8385,-14616 18006,-16149 9618,-1531 122704,337 122704,337l15775 7384 47050 -27950 -44155 54372 -20327 -17804 -139051 -190z"/>
     <path class="fil3" d="M29724 166383l131574 160110 -79121 -74c0,0 -16464,-921 -28528,-13541 -12654,12926 -48651,52597 -48651,52597l212540 0c0,0 13516,2398 19828,-11974 6313,-14369 -9907,-29546 -9907,-29546l-131131 -157845 -66603 272z"/>
     <polygon class="fil1" points="55423,322145 57535,347053 19091,360441 50624,341435 "/>
     <path class="fil1" d="M171863 344853c0,0 18439,-11047 5496,-28281 -12943,-17238 -100809,-124340 -100809,-124340l-34880 -20308 43098 16614 107864 129263c14624,17524 -5502,26617 -20770,27051z"/>
    </g>
    <g id="C">
     <path class="fil1" d="M448701 331633l-10823 22159c0,0 -26240,17685 -26240,19752 0,2069 30175,-2517 30175,-2517l23290 -13541 -7872 -17235 -3609 -11081 -4921 2463z"/>
     <polygon class="fil2" points="265582,159954 303853,121343 493874,121343 432249,174434 420737,159954 "/>
     <polygon class="fil3" points="265582,159954 303853,121343 493874,121343 437141,147915 429352,145033 302396,142291 "/>
     <polygon class="fil1" points="306087,127061 306019,137110 265582,159954 301840,144364 429199,144945 436898,151683 493415,121740 436013,139372 430384,135678 309732,135080 "/>
     <path class="fil3" d="M267266 167069l67712 867c0,0 -39878,184936 108273,178255 -76434,57028 -233908,7393 -175984,-179122z"/>
     <path class="fil1" d="M284742 189097l13708 587c-1800,-77 -40479,175709 142617,157060 -93093,22173 -179845,-31326 -156326,-157647z"/>
    </g>
   </g>
  </g>
 </g>
</svg>
